<svg width="153" height="44" viewBox="0 0 153 44" fill="none" xmlns="http://www.w3.org/2000/svg">
<path d="M67.47 31.7344H67.842V11.1504H70.446V32.8504H65.238L58.976 12.2664H58.604V32.8504H56V11.1504H61.208L67.47 31.7344Z" fill="white"/>
<path d="M74.8633 25.4715C74.9253 27.0008 75.4006 28.2305 76.2893 29.1605C77.178 30.0905 78.418 30.5555 80.0093 30.5555C80.7326 30.5555 81.363 30.4728 81.9003 30.3075C82.4376 30.1421 82.8923 29.9148 83.2643 29.6255C83.657 29.3361 83.967 29.0055 84.1943 28.6335C84.4423 28.2408 84.6386 27.8275 84.7833 27.3935L87.0773 28.0135C86.6433 29.4395 85.8373 30.6071 84.6593 31.5165C83.502 32.4051 81.9313 32.8495 79.9473 32.8495C78.852 32.8495 77.8393 32.6635 76.9093 32.2915C76 31.8988 75.2146 31.3511 74.5533 30.6485C73.892 29.9458 73.3753 29.1088 73.0033 28.1375C72.6313 27.1661 72.4453 26.0915 72.4453 24.9135V24.1695C72.4453 23.0948 72.6313 22.0925 73.0033 21.1625C73.396 20.2325 73.9333 19.4368 74.6153 18.7755C75.2973 18.0935 76.093 17.5665 77.0023 17.1945C77.9323 16.8018 78.9346 16.6055 80.0093 16.6055C81.27 16.6055 82.355 16.8431 83.2643 17.3185C84.1943 17.7731 84.9486 18.3415 85.5273 19.0235C86.1266 19.7055 86.5606 20.4495 86.8293 21.2555C87.1186 22.0615 87.2633 22.8055 87.2633 23.4875V25.4715H74.8633ZM80.0093 18.8995C79.3273 18.8995 78.6866 19.0131 78.0873 19.2405C77.5086 19.4471 76.992 19.7468 76.5373 20.1395C76.1033 20.5321 75.7416 20.9971 75.4523 21.5345C75.1836 22.0511 75.008 22.6195 74.9253 23.2395H84.8453C84.804 22.5781 84.6386 21.9788 84.3493 21.4415C84.0806 20.9041 83.719 20.4495 83.2643 20.0775C82.8303 19.7055 82.324 19.4161 81.7453 19.2095C81.1873 19.0028 80.6086 18.8995 80.0093 18.8995Z" fill="white"/>
<path d="M100.705 17.4746H103.464L98.9376 24.7906V25.1626L103.836 32.8506H101.015L96.8296 26.0926H96.2716L92.0866 32.8506H89.2656L94.1636 25.1626V24.7906L89.6376 17.4746H92.3966L96.2716 23.8606H96.8296L100.705 17.4746Z" fill="white"/>
<path d="M108.998 21.0075C108.998 21.7515 109.308 22.3198 109.928 22.7125C110.569 23.1051 111.726 23.3635 113.4 23.4875C115.198 23.6321 116.562 24.0661 117.492 24.7895C118.443 25.4921 118.918 26.5255 118.918 27.8895V28.0755C118.918 28.8195 118.763 29.4911 118.453 30.0905C118.164 30.6691 117.75 31.1651 117.213 31.5785C116.696 31.9918 116.056 32.3018 115.291 32.5085C114.547 32.7358 113.731 32.8495 112.842 32.8495C111.643 32.8495 110.61 32.6945 109.742 32.3845C108.895 32.0538 108.182 31.6301 107.603 31.1135C107.045 30.5761 106.621 29.9768 106.332 29.3155C106.043 28.6335 105.877 27.9515 105.836 27.2695L108.13 26.7115C108.233 27.8895 108.688 28.8401 109.494 29.5635C110.3 30.2661 111.375 30.6175 112.718 30.6175C113.855 30.6175 114.764 30.4005 115.446 29.9665C116.149 29.5118 116.5 28.8815 116.5 28.0755C116.5 27.2075 116.159 26.5875 115.477 26.2155C114.795 25.8435 113.689 25.6058 112.16 25.5025C110.383 25.3785 109.019 24.9651 108.068 24.2625C107.117 23.5598 106.642 22.5368 106.642 21.1935V21.0075C106.642 20.2841 106.797 19.6538 107.107 19.1165C107.417 18.5585 107.83 18.0935 108.347 17.7215C108.884 17.3495 109.484 17.0705 110.145 16.8845C110.806 16.6985 111.499 16.6055 112.222 16.6055C113.235 16.6055 114.123 16.7501 114.888 17.0395C115.653 17.3081 116.293 17.6698 116.81 18.1245C117.327 18.5585 117.719 19.0648 117.988 19.6435C118.277 20.2221 118.463 20.8008 118.546 21.3795L116.252 21.9375C116.149 20.9455 115.746 20.1705 115.043 19.6125C114.361 19.0545 113.462 18.7755 112.346 18.7755C111.912 18.7755 111.488 18.8271 111.075 18.9305C110.682 19.0131 110.331 19.1475 110.021 19.3335C109.711 19.5195 109.463 19.7571 109.277 20.0465C109.091 20.3151 108.998 20.6355 108.998 21.0075Z" fill="white"/>
<path d="M133.314 29.8115H132.942C132.446 30.8448 131.754 31.6095 130.865 32.1055C129.997 32.6015 129.077 32.8495 128.106 32.8495C127.093 32.8495 126.153 32.6841 125.285 32.3535C124.417 32.0021 123.652 31.4958 122.991 30.8345C122.35 30.1525 121.844 29.3258 121.472 28.3545C121.1 27.3831 120.914 26.2568 120.914 24.9755V24.4795C120.914 23.2188 121.1 22.1028 121.472 21.1315C121.844 20.1601 122.35 19.3438 122.991 18.6825C123.652 18.0005 124.417 17.4838 125.285 17.1325C126.153 16.7811 127.073 16.6055 128.044 16.6055C129.098 16.6055 130.049 16.8431 130.896 17.3185C131.764 17.7731 132.446 18.4861 132.942 19.4575H133.314V17.0395H135.732V29.2535C135.732 29.8735 136.011 30.1835 136.569 30.1835H137.344V32.4155H135.701C134.998 32.4155 134.42 32.1881 133.965 31.7335C133.531 31.2788 133.314 30.7001 133.314 29.9975V29.8115ZM128.354 30.5555C129.077 30.5555 129.739 30.4211 130.338 30.1525C130.958 29.8838 131.485 29.5015 131.919 29.0055C132.353 28.5095 132.694 27.9205 132.942 27.2385C133.19 26.5358 133.314 25.7608 133.314 24.9135V24.5415C133.314 23.7148 133.19 22.9605 132.942 22.2785C132.694 21.5758 132.343 20.9765 131.888 20.4805C131.454 19.9845 130.927 19.6021 130.307 19.3335C129.708 19.0441 129.057 18.8995 128.354 18.8995C127.631 18.8995 126.969 19.0338 126.37 19.3025C125.771 19.5711 125.244 19.9535 124.789 20.4495C124.355 20.9248 124.014 21.5138 123.766 22.2165C123.518 22.8985 123.394 23.6528 123.394 24.4795V24.9755C123.394 26.7321 123.849 28.1065 124.758 29.0985C125.688 30.0698 126.887 30.5555 128.354 30.5555Z" fill="white"/>
<path d="M142.506 21.0075C142.506 21.7515 142.816 22.3198 143.436 22.7125C144.076 23.1051 145.234 23.3635 146.908 23.4875C148.706 23.6321 150.07 24.0661 151 24.7895C151.95 25.4921 152.426 26.5255 152.426 27.8895V28.0755C152.426 28.8195 152.271 29.4911 151.961 30.0905C151.671 30.6691 151.258 31.1651 150.721 31.5785C150.204 31.9918 149.563 32.3018 148.799 32.5085C148.055 32.7358 147.238 32.8495 146.35 32.8495C145.151 32.8495 144.118 32.6945 143.25 32.3845C142.402 32.0538 141.689 31.6301 141.111 31.1135C140.553 30.5761 140.129 29.9768 139.84 29.3155C139.55 28.6335 139.385 27.9515 139.344 27.2695L141.638 26.7115C141.741 27.8895 142.196 28.8401 143.002 29.5635C143.808 30.2661 144.882 30.6175 146.226 30.6175C147.362 30.6175 148.272 30.4005 148.954 29.9665C149.656 29.5118 150.008 28.8815 150.008 28.0755C150.008 27.2075 149.667 26.5875 148.985 26.2155C148.303 25.8435 147.197 25.6058 145.668 25.5025C143.89 25.3785 142.526 24.9651 141.576 24.2625C140.625 23.5598 140.15 22.5368 140.15 21.1935V21.0075C140.15 20.2841 140.305 19.6538 140.615 19.1165C140.925 18.5585 141.338 18.0935 141.855 17.7215C142.392 17.3495 142.991 17.0705 143.653 16.8845C144.314 16.6985 145.006 16.6055 145.73 16.6055C146.742 16.6055 147.631 16.7501 148.396 17.0395C149.16 17.3081 149.801 17.6698 150.318 18.1245C150.834 18.5585 151.227 19.0648 151.496 19.6435C151.785 20.2221 151.971 20.8008 152.054 21.3795L149.76 21.9375C149.656 20.9455 149.253 20.1705 148.551 19.6125C147.869 19.0545 146.97 18.7755 145.854 18.7755C145.42 18.7755 144.996 18.8271 144.583 18.9305C144.19 19.0131 143.839 19.1475 143.529 19.3335C143.219 19.5195 142.971 19.7571 142.785 20.0465C142.599 20.3151 142.506 20.6355 142.506 21.0075Z" fill="white"/>
<rect width="44" height="44" rx="22" fill="white"/>
<path d="M27.4996 20L29.6209 22.1213L27.4996 24.2426L25.3782 22.1213L27.4996 20Z" fill="#1A1A1C"/>
<path d="M20.6235 31.1204L18.5022 33.2418L16.3809 31.1204L18.5022 28.9991L20.6235 31.1204Z" fill="#1A1A1C"/>
<path d="M24.4996 17L26.6209 19.1213L24.4996 21.2426L22.3782 19.1213L24.4996 17Z" fill="#1A1A1C"/>
<path d="M23.6235 28.1204L21.5022 30.2418L19.3809 28.1204L21.5022 25.9991L23.6235 28.1204Z" fill="#1A1A1C"/>
<path d="M21.4996 14L23.6209 16.1213L21.4996 18.2426L19.3782 16.1213L21.4996 14Z" fill="#1A1A1C"/>
<path d="M26.6235 25.1204L24.5022 27.2418L22.3809 25.1204L24.5022 22.9991L26.6235 25.1204Z" fill="#1A1A1C"/>
<path d="M18.4996 11L20.6209 13.1213L18.4996 15.2426L16.3782 13.1213L18.4996 11Z" fill="#1A1A1C"/>
<path d="M23.6235 22.1204L21.5022 24.2418L19.3809 22.1204L21.5022 19.9991L23.6235 22.1204Z" fill="#1A1A1C"/>
<path d="M18.2426 22.1204L16.1213 24.2418L14 22.1204L16.1213 19.9991L18.2426 22.1204Z" fill="#1A1A1C"/>
</svg>
